<?xml version="1.0" encoding="utf-8"?>
<!-- Generator: Adobe Illustrator 16.0.0, SVG Export Plug-In . SVG Version: 6.00 Build 0)  -->
<!DOCTYPE svg PUBLIC "-//W3C//DTD SVG 1.1//EN" "http://www.w3.org/Graphics/SVG/1.1/DTD/svg11.dtd">
<svg version="1.1" xmlns="http://www.w3.org/2000/svg" xmlns:xlink="http://www.w3.org/1999/xlink" x="0px" y="0px" width="65px"
	 height="65px" viewBox="0 0 65 65" enable-background="new 0 0 65 65" xml:space="preserve">
<g id="レイヤー_2">
</g>
<g id="レイヤー_1">
	<g>
		<path fill="#333333" d="M19.38,14.754V9.593c-0.345,0.625-0.694,1.156-1.05,1.592l-0.449-0.41c0.463-0.638,0.906-1.428,1.33-2.371
			c0.426-0.942,0.726-1.794,0.901-2.556l0.776,0.122c-0.219,0.84-0.552,1.735-1.001,2.686h0.234v6.099H19.38z M27.354,14.71
			c-1.436-0.234-2.734-0.687-3.896-1.357c-0.65,0.719-1.521,1.183-2.612,1.392l-0.205-0.542c0.905-0.208,1.64-0.62,2.202-1.235
			c-0.531-0.361-0.982-0.724-1.357-1.089l0.483-0.4c0.352,0.358,0.771,0.692,1.255,1.001c0.209-0.335,0.342-0.757,0.4-1.265h-2.432
			v-2.92h2.476V7.357h-2.729V6.776h2.729V5.799h0.767v0.977h2.959v0.581h-2.959v0.938h2.52v2.92H24.39
			c-0.075,0.654-0.251,1.191-0.527,1.611l-0.01,0.02c1.221,0.641,2.495,1.056,3.823,1.245L27.354,14.71z M23.667,8.827h-1.733v1.836
			h1.729c0.004-0.091,0.005-0.278,0.005-0.562V8.827z M26.211,8.827h-1.777v1.357c0,0.228-0.002,0.387-0.005,0.479h1.782V8.827z"/>
		<path fill="#333333" d="M32.739,11.546c-0.11,0.309-0.286,0.687-0.524,1.133c-0.24,0.446-0.484,0.818-0.732,1.116
			c-0.25,0.298-0.508,0.447-0.774,0.447c-0.163,0-0.308-0.039-0.435-0.117s-0.293-0.229-0.498-0.454s-0.393-0.533-0.564-0.925
			c-0.17-0.392-0.297-0.803-0.378-1.233s-0.122-0.848-0.122-1.255c0-0.365,0.037-0.88,0.112-1.548c0.078-0.7,0.12-1.211,0.127-1.533
			h0.82c-0.013,0.293-0.065,0.804-0.156,1.533c-0.081,0.651-0.122,1.166-0.122,1.543c0,0.566,0.06,1.075,0.178,1.526
			c0.119,0.451,0.292,0.839,0.518,1.165c0.227,0.326,0.393,0.488,0.496,0.488c0.17,0,0.396-0.232,0.684-0.696
			s0.543-0.964,0.771-1.501L32.739,11.546z M37.207,12.982l-0.82,0.024v-0.088c0-0.963-0.156-1.901-0.469-2.813
			S35.16,8.381,34.58,7.665l0.601-0.381C36.509,8.804,37.184,10.703,37.207,12.982z"/>
		<path fill="#333333" d="M41.724,10.174c-0.354,2.002-1.448,3.491-3.281,4.468l-0.386-0.503c0.572-0.332,1.047-0.694,1.421-1.086
			s0.663-0.787,0.864-1.184s0.348-0.755,0.438-1.074c0.089-0.319,0.162-0.629,0.217-0.93s0.093-0.909,0.112-1.824H38.35V7.42h4.009
			V5.931h0.796V7.42h4.214v0.62h-5.459c-0.007,0.628-0.036,1.143-0.088,1.543h4.404v1.284c0,0.557-0.02,1.045-0.059,1.465
			s-0.101,0.775-0.183,1.064c-0.084,0.29-0.199,0.518-0.348,0.684c-0.147,0.166-0.322,0.286-0.524,0.359s-0.372,0.113-0.513,0.12
			s-0.48,0.01-1.021,0.01h-0.64l-0.107-0.684h1.274c0.589,0,0.958-0.239,1.108-0.718s0.225-1.191,0.225-2.139v-0.854H41.724z"/>
	</g>
	<g>
		<path fill-rule="evenodd" clip-rule="evenodd" fill="#333333" d="M33.753,24.368c0.704,0.126,1.425,0.192,2.109,0.39
			c3.378,0.973,6.153,2.78,7.721,6.035c1.371,2.85,1.139,5.665-0.639,8.29c-0.695,1.027-1.728,1.734-2.767,2.4
			c-0.717,0.459-1.475,0.865-2.147,1.382c-0.712,0.546-1.179,1.311-1.483,2.159c-0.069,0.192-0.092,0.404-0.116,0.609
			c-0.089,0.736-0.525,1.132-1.264,1.133c-1.78,0-3.561,0-5.342,0c-0.786,0-1.165-0.306-1.26-1.103
			c-0.247-2.083,0.243-3.934,1.728-5.486c1.071-1.12,2.281-2.02,3.679-2.695c0.592-0.286,1.177-0.646,1.656-1.091
			c1.264-1.173,1.082-3.03-0.376-3.935c-1.664-1.034-3.414-1.083-5.129-0.156c-0.55,0.297-0.996,0.81-1.44,1.271
			c-0.49,0.509-0.925,1.071-1.382,1.612c-0.49,0.58-0.996,0.644-1.604,0.183c-1.303-0.987-2.603-1.978-3.899-2.973
			c-0.509-0.392-0.614-0.876-0.299-1.396c1.189-1.958,2.676-3.631,4.659-4.827c1.698-1.024,3.549-1.562,5.515-1.738
			c0.132-0.012,0.262-0.042,0.394-0.063C32.628,24.368,33.19,24.368,33.753,24.368z"/>
		<path fill-rule="evenodd" clip-rule="evenodd" fill="#333333" d="M29.315,56.368c-0.575-0.228-0.804-0.65-0.798-1.267
			c0.018-1.821,0.006-3.644,0.007-5.465c0-0.904,0.365-1.268,1.268-1.268c1.853,0,3.706,0,5.56,0c0.783,0,1.171,0.383,1.172,1.166
			c0.003,1.853-0.015,3.707,0.01,5.559c0.008,0.619-0.213,1.038-0.78,1.274C33.607,56.368,31.461,56.368,29.315,56.368z"/>
	</g>
</g>
</svg>
