<?xml version="1.0" encoding="utf-8"?>
<!-- Generator: Adobe Illustrator 16.0.0, SVG Export Plug-In . SVG Version: 6.00 Build 0)  -->
<!DOCTYPE svg PUBLIC "-//W3C//DTD SVG 1.1//EN" "http://www.w3.org/Graphics/SVG/1.1/DTD/svg11.dtd">
<svg version="1.1" xmlns="http://www.w3.org/2000/svg" xmlns:xlink="http://www.w3.org/1999/xlink" x="0px" y="0px" width="65px"
	 height="65px" viewBox="0 0 65 65" enable-background="new 0 0 65 65" xml:space="preserve">
<g id="レイヤー_2">
</g>
<g id="レイヤー_1">
	<g>
		<path fill="#333333" d="M11.898,11.556h-0.85V9.085H9.115V8.377h1.934V6.317h0.85v2.061h4.048V6.175h0.85v2.202h1.841v0.708
			h-1.841v1.182c0,2.728-1.884,4.154-5.649,4.277l-0.161-0.728c1.823-0.065,3.105-0.413,3.848-1.042s1.113-1.459,1.113-2.488V9.085
			h-4.048V11.556z"/>
		<path fill="#333333" d="M25.058,14.593h-0.869V9.73c-1.429,0.758-2.952,1.327-4.57,1.704l-0.259-0.669
			c2.113-0.543,3.779-1.226,5-2.046s2.137-1.668,2.749-2.544l0.801,0.313c-0.593,0.885-1.543,1.777-2.852,2.676V14.593z"/>
		<path fill="#333333" d="M38.31,11.087l-0.513,0.679c-0.678-0.453-1.486-0.897-2.427-1.333s-1.778-0.765-2.515-0.986v5.181h-0.869
			v-8.55h0.879v2.617C34.795,9.274,36.61,10.072,38.31,11.087z"/>
		<path fill="#333333" d="M39.911,7.723c-0.013,0.414-0.058,0.917-0.132,1.511s-0.156,1.033-0.244,1.316l-0.61-0.122
			c0.192-0.703,0.312-1.621,0.356-2.754L39.911,7.723z M41.146,14.735h-0.703V5.848h0.703V14.735z M42.362,8.275L41.84,8.431
			l-0.366-1.289l0.522-0.122L42.362,8.275z M48.48,9.369h-6.23V8.807h2.632V8.094h-2.173V7.562h2.173V6.917h-2.51V6.38h2.51V5.79
			h0.762V6.38H48.3v0.537h-2.656v0.645h2.339v0.532h-2.339v0.713h2.837V9.369z M47.113,13.011h-3.643v1.733h-0.723v-4.736h5.112
			v3.999c0,0.182-0.082,0.335-0.247,0.459c-0.164,0.124-0.338,0.186-0.52,0.186h-1.06l-0.083-0.635h0.786
			c0.098,0,0.185-0.031,0.261-0.093c0.077-0.062,0.115-0.128,0.115-0.2V13.011z M47.113,11.234v-0.713h-3.643v0.713H47.113z
			 M43.471,12.499h3.643v-0.752h-3.643V12.499z"/>
		<path fill="#333333" d="M51.054,14.745v-1.963h-1.816V12.21h1.816v-1.143h-1.826v-0.557h1.069l-0.454-1.636h-0.557V8.304h1.787
			v-1.03h-1.499V6.727h1.499v-0.84h0.752v0.84h1.489v0.547h-1.489v1.03H53.5v0.571h-0.43l-0.527,1.636h0.986v0.557h-1.714v1.143
			h1.543v0.571h-1.543v1.963H51.054z M50.956,10.511h0.942l0.459-1.636h-1.851L50.956,10.511z M53.988,14.71V6.141h3.906v2.002
			c0,0.192-0.084,0.354-0.254,0.486s-0.366,0.198-0.591,0.198h-1.113l-0.103-0.601h0.889c0.293,0,0.439-0.119,0.439-0.356V6.703
			h-2.427v2.91h3.486c-0.017,1.214-0.381,2.314-1.094,3.301c0.42,0.459,0.907,0.871,1.46,1.235l-0.469,0.532
			c-0.533-0.381-1.001-0.799-1.401-1.255c-0.481,0.537-0.97,0.939-1.465,1.206l-0.327-0.459c0.484-0.287,0.947-0.702,1.387-1.245
			l-0.02-0.024c-0.248-0.309-0.477-0.696-0.688-1.16s-0.356-0.987-0.435-1.57h-0.435v4.536H53.988z M56.698,12.391
			c0.472-0.732,0.728-1.471,0.767-2.217h-1.67C55.896,10.962,56.197,11.701,56.698,12.391z"/>
	</g>
	<g>
		<path fill-rule="evenodd" clip-rule="evenodd" fill="#333333" d="M27.753,56.001c-0.073-0.034-0.146-0.069-0.219-0.103
			c-0.553-0.26-0.904-0.673-0.913-1.302c-0.015-1.01-0.02-2.021,0.002-3.031c0.017-0.757,0.632-1.351,1.389-1.375
			c0.486-0.015,0.975-0.002,1.479-0.002c0-2.921,0-5.811,0-8.738c-0.437,0-0.86,0.002-1.284,0c-1.006-0.006-1.589-0.585-1.595-1.589
			c-0.005-0.885-0.006-1.771,0.001-2.656c0.007-0.975,0.606-1.57,1.589-1.571c2.813-0.003,5.625-0.003,8.437,0
			c1.004,0.001,1.605,0.613,1.606,1.627c0.002,4.156,0.001,8.313,0.001,12.469c0,0.135,0,0.27,0,0.457
			c0.498,0,0.982-0.008,1.467,0.002c0.655,0.015,1.212,0.444,1.377,1.07c0.047,0.178,0.051,0.37,0.052,0.556
			c0.006,0.771-0.032,1.543,0.012,2.312c0.053,0.915-0.277,1.549-1.15,1.874C35.92,56.001,31.836,56.001,27.753,56.001z"/>
		<path fill-rule="evenodd" clip-rule="evenodd" fill="#333333" d="M37.065,24.001c0.87,0.297,1.212,0.914,1.188,1.819
			c-0.032,1.27-0.007,2.541-0.009,3.811c-0.002,1.041-0.586,1.635-1.618,1.637c-1.833,0.004-3.665,0.004-5.498,0
			c-1.032-0.002-1.616-0.597-1.618-1.637c-0.002-1.271,0.023-2.542-0.009-3.811c-0.023-0.906,0.318-1.522,1.188-1.819
			C32.815,24.001,34.94,24.001,37.065,24.001z"/>
	</g>
</g>
</svg>
