<?xml version="1.0" encoding="utf-8"?>
<!-- Generator: Adobe Illustrator 16.0.0, SVG Export Plug-In . SVG Version: 6.00 Build 0)  -->
<!DOCTYPE svg PUBLIC "-//W3C//DTD SVG 1.1//EN" "http://www.w3.org/Graphics/SVG/1.1/DTD/svg11.dtd">
<svg version="1.1" id="レイヤー_1" xmlns="http://www.w3.org/2000/svg" xmlns:xlink="http://www.w3.org/1999/xlink" x="0px"
	 y="0px" width="65px" height="65px" viewBox="0 0 65 65" enable-background="new 0 0 65 65" xml:space="preserve">
<g id="レイヤー_2">
</g>
<g>
	<path fill="#333333" d="M20.859,15.227h-7.793V8.118h7.793V15.227z M20.029,14.543V8.767h-6.152v5.776H20.029z"/>
	<path fill="#333333" d="M26.597,7.244c-0.095,0.309-0.23,0.643-0.406,1.001h4.736l-0.039,0.679
		c-0.01,0.195-0.092,0.575-0.248,1.138c-0.102,0.361-0.227,0.724-0.374,1.089s-0.343,0.742-0.583,1.133
		c-0.241,0.391-0.531,0.758-0.872,1.104s-0.736,0.66-1.188,0.945c-0.453,0.285-0.977,0.538-1.57,0.759s-1.239,0.4-1.936,0.537
		l-0.289-0.703c1.879-0.365,3.309-1.037,4.29-2.017s1.598-2.296,1.849-3.95h-4.16c-0.385,0.631-0.861,1.229-1.429,1.794
		s-1.161,1.026-1.78,1.384l-0.459-0.542c0.863-0.547,1.615-1.244,2.256-2.092c0.642-0.848,1.076-1.64,1.305-2.375L26.597,7.244z
		 M30.386,7.844L29.83,8.093c-0.212-0.479-0.446-0.924-0.703-1.338l0.531-0.239C29.945,6.962,30.187,7.405,30.386,7.844z
		 M31.816,7.664l-0.561,0.229c-0.219-0.508-0.451-0.957-0.699-1.348l0.514-0.239C31.327,6.703,31.576,7.156,31.816,7.664z"/>
	<path fill="#333333" d="M38.238,15.593h-0.869V10.73c-1.43,0.758-2.953,1.327-4.571,1.704l-0.26-0.669
		c2.114-0.543,3.78-1.226,5-2.046s2.137-1.668,2.75-2.544l0.801,0.313c-0.594,0.885-1.543,1.777-2.852,2.676V15.593z"/>
	<path fill="#333333" d="M51.465,10.706c-0.547,0.954-1.256,1.778-2.129,2.473s-1.779,1.212-2.723,1.553
		c-0.941,0.34-2.051,0.579-3.326,0.715l-0.172-0.752c1.061-0.107,2.012-0.302,2.852-0.583s1.553-0.622,2.137-1.021
		s1.076-0.794,1.477-1.187s0.807-0.932,1.217-1.619L51.465,10.706z M47.207,9.465l-0.551,0.64c-1.162-0.716-2.322-1.32-3.477-1.812
		l0.42-0.61C44.816,8.139,46.02,8.733,47.207,9.465z"/>
</g>
<image overflow="visible" width="32" height="32" xlink:href="../../sign-in.png"  transform="matrix(1 0 0 1 88.8848 25.2905)">
</image>
<g>
	<circle fill="#333333" cx="33.325" cy="30.315" r="8.039"/>
	<path fill="#333333" d="M43.922,55C34.229,55,33,55,22,55c-4,0-4-16.473,0-16.473c3,0,6.329,2.473,10.659,2.473
		c3.241,0-1.37,0,1.217,0c4.333,0,8.127-2.557,10.046-2.625C47.309,38.256,47.311,55,43.922,55z"/>
</g>
</svg>
