<?xml version="1.0" encoding="utf-8"?>
<!-- Generator: Adobe Illustrator 16.0.0, SVG Export Plug-In . SVG Version: 6.00 Build 0)  -->
<!DOCTYPE svg PUBLIC "-//W3C//DTD SVG 1.1//EN" "http://www.w3.org/Graphics/SVG/1.1/DTD/svg11.dtd">
<svg version="1.1" xmlns="http://www.w3.org/2000/svg" xmlns:xlink="http://www.w3.org/1999/xlink" x="0px" y="0px" width="200px"
	 height="50px" viewBox="0 0 200 50" enable-background="new 0 0 200 50" xml:space="preserve">
<g id="レイヤー_2">
</g>
<g id="レイヤー_1">
	<g>
		<path fill="#9E9E9E" d="M25.214,34.074V22.166c0-2.273-2.343-4.08-5.757-4.08c-1.539,0-4.747,0.667-4.747,4.08v11.909H25.214z
			 M41.022,34.074V22.769c0-3.279-1.807-6.491-6.223-6.491c-4.215,0-5.554,2.811-5.554,6.491v11.306H41.022z"/>
		<g>
			<path fill="#9E9E9E" d="M45.278,24.952c0.024,9.928-8.002,17.995-17.93,18.021c-9.929,0.026-17.996-8-18.021-17.926
				C9.301,15.117,17.329,7.05,27.257,7.024C37.184,6.998,45.252,15.024,45.278,24.952z M27.24,1
				C13.984,1.036,3.271,11.807,3.303,25.063C3.338,38.316,14.112,49.032,27.366,49c13.254-0.038,23.97-10.808,23.938-24.064
				C51.268,11.684,40.497,0.966,27.24,1z"/>
		</g>
	</g>
	<g>
		<path fill="#9E9E9E" d="M59.801,42.632V22.95h11.041c3.385,0,5.641,2.064,5.641,5.064c0,1.776-0.815,2.76-1.32,3.192
			c-0.479,0.432-0.863,0.576-1.487,0.792c2.376,0.648,3.528,2.4,3.528,4.872c0,3.648-2.761,5.761-5.905,5.761H59.801z M65.25,30.895
			h4.272c0.815,0,1.464-0.84,1.464-2.064c0-0.552-0.24-1.704-1.464-1.704H65.25V30.895z M65.25,38.456h4.056
			c1.177,0,2.328-0.648,2.328-2.232c0-1.512-1.008-1.992-2.328-1.992H65.25V38.456z"/>
		<path fill="#9E9E9E" d="M86.249,27.75c3.984,0,7.801,2.28,7.801,7.705c0,5.425-3.816,7.705-7.801,7.705
			c-3.912,0-7.824-2.208-7.824-7.705C78.425,29.959,82.337,27.75,86.249,27.75z M86.249,31.447c-2.376,0-2.784,2.448-2.784,4.176
			c0,0.648,0.097,3.84,2.784,3.84c2.568,0,2.761-2.928,2.761-4.008C89.01,34.399,88.817,31.447,86.249,31.447z"/>
		<path fill="#9E9E9E" d="M105.21,22.95h4.849v19.682h-4.345l-0.096-1.896c-1.248,2.424-3.721,2.424-4.393,2.424
			c-4.729,0-6.36-3.912-6.36-7.729c0-3.696,1.536-7.681,6.072-7.681c0.744,0,3.072,0,4.272,2.112V22.95z M100.577,32.695
			c-0.504,0.672-0.672,1.824-0.672,2.665c0,2.496,1.128,3.84,2.664,3.84c1.944,0,2.568-2.041,2.568-3.552
			c0-0.48-0.023-3.865-2.688-3.865C101.321,31.783,100.842,32.335,100.577,32.695z"/>
		<path fill="#9E9E9E" d="M127.194,28.279l-5.353,14.161c-1.129,2.976-4.633,3.024-6.361,3.024c-1.319,0-1.68-0.024-3-0.168v-3.768
			h2.04c0.769,0,1.152-0.12,1.368-0.624l-4.824-12.625h5.232l2.832,7.873l2.809-7.873H127.194z"/>
		<path fill="#9E9E9E" d="M132.617,28.279l0.096,2.28c1.225-2.808,3.673-2.808,4.129-2.808c2.568,0,3.288,1.92,3.553,2.664
			c0.336-0.624,1.416-2.664,4.2-2.664c2.16,0,4.512,1.416,4.512,5.593v9.289h-4.848v-8.497c0-1.248-0.48-2.136-1.513-2.136
			c-1.08,0-1.656,1.08-1.656,2.328v8.305h-4.849v-8.521c0-1.152-0.312-2.112-1.439-2.112c-1.296,0-1.704,1.296-1.704,2.472v8.161
			h-4.849V28.279H132.617z"/>
		<path fill="#9E9E9E" d="M161.129,42.632c-0.312-0.528-0.384-0.984-0.384-1.584c-0.816,0.936-2.185,2.112-5.28,2.112
			c-2.473,0-5.064-0.888-5.064-4.56c0-3.648,2.808-4.057,8.089-4.801c1.128-0.168,2.231-0.312,2.231-1.272
			c0-1.272-1.439-1.272-2.04-1.272c-2.88,0-2.88,0.672-2.856,1.416h-4.728c0.168-1.512,0.504-4.92,7.561-4.92
			c3.36,0,6.937,0.912,6.937,4.8v8.401c0,0.504,0.144,1.032,0.647,1.344v0.336H161.129z M160.745,36.271
			c-0.72,0.336-0.888,0.36-2.496,0.648c-1.776,0.336-2.784,0.528-2.784,1.608c0,1.008,1.344,1.032,1.872,1.032
			c1.584,0,3.408-0.744,3.408-2.64V36.271z"/>
		<path fill="#9E9E9E" d="M173.969,31.255v6.289c0,1.272,0.624,1.68,1.607,1.68h1.177v3.768c-0.48,0.024-2.881,0.168-3.433,0.168
			c-3.769,0-4.32-1.968-4.32-3.768v-8.137h-2.232v-2.976H169v-4.081h4.969v4.081h2.784v2.976H173.969z"/>
		<path fill="#9E9E9E" d="M182.416,36.559c0.049,2.88,2.137,3.168,3.049,3.168c1.584,0,2.063-0.816,2.424-1.416h4.896
			c-0.336,0.816-0.624,1.56-1.44,2.424c-0.744,0.816-2.544,2.424-5.928,2.424c-4.152,0-7.921-2.568-7.921-7.632
			c0-4.537,3.096-7.777,7.753-7.777c7.128,0,7.681,6.313,7.872,8.809H182.416z M188.201,33.463c-0.168-0.552-0.721-2.28-2.881-2.28
			s-2.688,1.729-2.88,2.28H188.201z"/>
	</g>
	<g>
		<path fill="#9E9E9E" d="M69.026,10.618v3.574c0,1.307,1.476,1.343,3.754,1.343c1.523,0,3.046-0.144,4.558-0.3
			c-0.252,0.552-0.408,1.056-0.456,1.787h-5.253c-1.343,0-2.53-0.096-3.43-1.164c-0.24,0.228-0.636,0.588-1.296,0.983
			c0.013,0.24,0.024,0.372-0.155,0.372c-0.072,0-0.156-0.096-0.204-0.192l-0.804-1.583c0.636-0.252,1.067-0.492,1.535-0.78v-2.482
			h-1.163v-1.559H69.026z M67.023,6.348c0.647,0.54,1.14,1.007,1.739,1.703c-0.552,0.408-0.912,0.756-1.319,1.223
			c-0.576-0.815-1.079-1.355-1.583-1.847L67.023,6.348z M73.775,9.431h2.615v3.67h-2.615v0.336h3.154v1.187h-3.154v0.672h-1.522
			v-0.672h-2.915v-1.187h2.915v-0.336h-2.615v-3.67h2.615V9.119h-2.027V8.675H68.87V6.432h8.06v2.243h-1.354v0.444h-1.8V9.431z
			 M72.253,7.644h-1.932v0.384h1.932V7.644z M72.253,10.39h-1.067v0.456h1.067V10.39z M72.253,11.673h-1.067v0.468h1.067V11.673z
			 M73.775,8.027h1.703V7.644h-1.703V8.027z M73.775,10.846h1.067V10.39h-1.067V10.846z M73.775,12.141h1.067v-0.468h-1.067V12.141z
			"/>
		<path fill="#9E9E9E" d="M85.248,8.663V6.216L86.892,6.3c0.191,0.012,0.3,0.06,0.3,0.204c0,0.108-0.133,0.192-0.3,0.251v1.907
			h1.979c0,3.67,0,7.028-0.911,7.939c-0.552,0.552-1.512,0.552-1.907,0.528c-0.132-0.456-0.276-0.875-0.636-1.475
			c-0.276,0.527-0.647,1.163-1.104,1.691c-0.456-0.336-0.791-0.552-1.392-0.828c0.036-0.048,0.156-0.192,0.24-0.312
			c-2.746,0.384-3.922,0.419-4.378,0.432c-0.06,0.108-0.132,0.276-0.264,0.276s-0.191-0.132-0.216-0.276l-0.191-1.379
			c0.443,0.024,1.031,0,2.351-0.072V14.66h-2.159v-1.091h2.159v-0.348h-2.087V9.61h2.087V9.274h-2.351V8.075h2.351v-0.3
			c-0.624,0.036-0.996,0.06-1.547,0.048c-0.049-0.408-0.313-0.899-0.54-1.187c0.216,0.024,0.42,0.036,0.923,0.036
			c2.184,0,3.431-0.372,3.73-0.503l0.72,1.031c0.036,0.048,0.06,0.108,0.06,0.156c0,0.06-0.023,0.144-0.12,0.144
			c-0.107,0-0.216-0.072-0.3-0.132c-0.6,0.132-0.971,0.204-1.415,0.264v0.444h2.495v0.588H85.248z M80.463,11.014v-0.456h-0.66
			v0.456H80.463z M79.803,11.817v0.456h0.66v-0.456H79.803z M84.265,9.274h-2.291V9.61h2.087v3.61h-2.087v0.348h2.051v1.091h-2.051
			v0.42c0.66-0.048,1.344-0.108,1.871-0.192c-0.048,0.156-0.072,0.264-0.132,0.492c0.336-0.564,1.26-2.087,1.487-4.929h-0.936V9.274
			z M82.634,11.014v-0.456h-0.66v0.456H82.634z M81.974,11.817v0.456h0.66v-0.456H81.974z M86.771,10.45
			c-0.216,2.626-0.708,3.838-1.235,4.977c0.168,0.048,0.527,0.144,0.755,0.144c0.288,0,0.42-0.108,0.54-0.552
			c0.36-1.248,0.42-3.25,0.384-4.569H86.771z"/>
		<path fill="#9E9E9E" d="M93.674,15.511c1.735-0.32,2.247-1.663,2.247-2.495c0-0.647-0.344-1.839-1.847-1.959
			c-0.248,2.926-1.456,5.109-2.303,5.109c-0.624,0-1.783-1.056-1.783-2.535c0-1.719,1.566-3.726,3.918-3.726
			c1.751,0,3.277,1.191,3.277,3.103c0,0.368-0.031,1.391-0.943,2.471c-0.487,0.567-1.055,0.863-1.734,1.159
			C94.242,16.175,94.065,15.935,93.674,15.511z M91.172,13.536c0,0.616,0.344,1.08,0.512,1.08c0.191,0,0.344-0.36,0.432-0.568
			c0.344-0.792,0.607-1.711,0.615-2.75C91.803,11.642,91.172,12.817,91.172,13.536z"/>
		<path fill="#9E9E9E" d="M102.777,8.159c0.12,0.024,0.24,0.06,0.24,0.168s-0.12,0.18-0.264,0.204
			c-0.108,0.492-0.648,2.89-1.439,4.725c-0.672,1.583-1.487,2.519-1.848,2.926c-0.479-0.335-1.283-0.671-1.811-0.827
			c2.267-2.651,2.759-5.038,3.166-7.652L102.777,8.159z M105.728,7.355c1.008,1.379,2.723,3.922,3.574,7.34
			c-0.491,0.276-1.511,0.852-1.907,1.079c-0.839-4.114-2.458-6.38-3.214-7.256L105.728,7.355z"/>
		<path fill="#9E9E9E" d="M120.786,10.714v2.039h-10.422v-2.039H120.786z"/>
		<path fill="#9E9E9E" d="M126.441,9.55c1.475,0.804,2.926,1.667,4.149,2.819c-0.384,0.503-0.468,0.624-1.176,1.739
			c-1.499-1.583-3.25-2.531-3.693-2.758v5.685h-2.051V6.432l2.051,0.072c0.06,0,0.216,0.012,0.216,0.156s-0.132,0.18-0.216,0.204
			v3.706L126.441,9.55z M129.115,7.428c0.444,0.372,0.84,0.792,1.224,1.223c-0.275,0.228-0.72,0.588-0.983,0.816
			c-0.216-0.312-0.792-0.96-1.176-1.271L129.115,7.428z M130.398,6.492c0.229,0.18,0.816,0.672,1.224,1.211
			c-0.155,0.12-0.779,0.647-0.899,0.744c-0.624-0.684-0.875-0.936-1.247-1.259L130.398,6.492z"/>
		<path fill="#9E9E9E" d="M136.401,7.104c0.132,0.012,0.276,0.012,0.276,0.168c0,0.144-0.156,0.204-0.204,0.228v2.926
			c0,3.154-1.535,4.486-2.975,5.721c-0.527-0.612-0.875-0.828-1.619-1.307c1.188-0.78,1.751-1.535,1.943-1.847
			c0.144-0.228,0.588-0.923,0.588-2.458V7.008L136.401,7.104z M139.46,7.008c0.132,0.012,0.228,0.012,0.228,0.132
			c0,0.108-0.12,0.168-0.228,0.216v5.841c1.476-0.971,2.639-2.482,3.106-3.142c0.216,0.684,0.443,1.139,0.923,1.799
			c-0.695,0.9-2.206,2.471-3.37,3.322c-0.479,0.348-0.947,0.72-1.415,1.08l-1.271-0.815c0.024-0.324,0.049-0.624,0.049-0.959V6.9
			L139.46,7.008z"/>
		<path fill="#9E9E9E" d="M147.83,9.69c0.048,0.008,0.16,0.032,0.16,0.144s-0.145,0.12-0.2,0.12l-0.185,0.392
			c0.232-0.032,0.992-0.136,1.655-0.376v1.184c-1.191,0.208-1.335,0.232-2.278,0.344c-0.096,0.168-0.112,0.2-0.312,0.552
			c0.287-0.16,0.631-0.16,0.695-0.16c0.407,0,0.919,0.24,1.167,0.68c1.184-0.568,1.319-0.624,1.615-0.792l0.472,1.279
			c-0.888,0.28-1.351,0.448-1.823,0.647c0.017,0.232,0.024,0.48,0.024,0.72c0,0.36-0.016,0.583-0.024,0.8
			c-0.256-0.016-0.543-0.016-0.799-0.016c-0.264,0-0.304,0-0.464,0.016c0.032-0.256,0.048-0.416,0.056-0.912
			c-0.496,0.304-0.999,0.64-0.999,0.967c0,0.36,0.815,0.384,1.223,0.384c0.88,0,1.712-0.144,2.559-0.392
			c-0.104,0.399-0.159,0.887-0.151,1.271c-0.728,0.168-1.479,0.232-2.23,0.232c-0.536,0-2.615,0-2.615-1.415
			c0-0.943,1.271-1.735,2.143-2.191c-0.128-0.352-0.407-0.4-0.6-0.4c-0.831,0-1.391,0.896-1.831,1.607l-1.111-0.632
			c0.528-0.56,1.327-1.663,1.623-2.151c-0.432,0.016-0.783,0.016-1.127,0.008l0.008-1.16c0.248,0.024,0.712,0.064,1.256,0.064
			c0.231,0,0.327,0,0.455-0.008c0.296-0.616,0.36-0.832,0.424-1.047L147.83,9.69z"/>
		<path fill="#9E9E9E" d="M157.549,9.107c0.588,0.372,1.367,0.875,1.715,1.151c1.751,1.403,1.932,1.547,2.291,1.967
			c-0.563,0.552-0.636,0.636-1.392,1.547c-0.888-1.211-2.398-2.278-2.614-2.422v5.841h-1.919V8.339h-4.042V6.588h10.975v1.751
			h-5.014V9.107z"/>
		<path fill="#9E9E9E" d="M166.515,6.828c0.168,0.048,0.288,0.084,0.288,0.192s-0.12,0.144-0.288,0.18
			c-0.336,1.116-0.647,2.315-0.647,4.138c0,0.756,0.048,1.619,0.228,2.351c0.145-0.264,0.48-1.02,0.647-1.392
			c0.385,0.336,0.744,0.612,1.164,0.875c-0.588,1.091-0.996,2.423-1.067,3.178l-1.907,0.312c-0.228-0.576-0.875-2.303-0.875-5.553
			c0-1.655,0.155-2.735,0.551-4.857L166.515,6.828z M167.75,9.479c0.444,0.048,1.151,0.108,2.543,0.084
			c-0.036-0.792-0.12-2.531-0.276-3.262l2.039,0.18c0.264,0.024,0.348,0.036,0.348,0.156c0,0.132-0.107,0.168-0.228,0.216
			c0,0.396,0.036,2.159,0.036,2.519c1.043-0.168,1.679-0.336,2.099-0.456c-0.024,0.24-0.048,0.503-0.048,0.923
			c0,0.432,0.023,0.72,0.048,0.936c-0.456,0.108-1.031,0.252-2.087,0.384c0.072,3.154-0.479,4.701-2.123,6.093
			c-0.6-0.708-1.043-0.984-1.583-1.235c1.115-1.02,1.703-1.979,1.763-4.689c-1.079,0.072-1.822,0.06-2.446,0.048L167.75,9.479z
			 M173.327,6.864c0.275,0.456,0.432,0.744,0.624,1.235c-0.301,0.24-0.624,0.492-0.816,0.66c-0.228-0.587-0.384-0.911-0.647-1.307
			L173.327,6.864z M174.383,6.048c0.359,0.588,0.503,0.804,0.695,1.211c-0.408,0.264-0.552,0.348-0.911,0.636
			c-0.204-0.492-0.313-0.731-0.6-1.224L174.383,6.048z"/>
		<path fill="#9E9E9E" d="M183.791,7.62c-0.815,0.54-2.675,2.398-2.938,2.674c0.204-0.048,0.792-0.18,1.439-0.18
			c1.631,0,3.311,1.031,3.311,3.154c0,2.639-2.507,3.79-4.582,3.79c-1.547,0-3.046-0.612-3.046-2.063
			c0-1.188,1.104-1.919,2.351-1.919c1.127,0,2.303,0.636,2.578,1.763c0.792-0.396,0.792-1.319,0.792-1.416
			c0-0.288-0.096-1.751-1.955-1.751c-2.027,0-3.179,1.188-4.846,2.926l-1.438-1.403c1.379-0.959,4.054-3.598,4.856-4.665
			c-0.383,0.084-0.791,0.18-3.189,0.419l-0.288-1.883c0.468,0.012,3.934,0.048,5.997-0.755L183.791,7.62z M180.181,14.576
			c-0.407,0-0.503,0.228-0.503,0.432c0,0.456,0.671,0.636,1.079,0.636c0.275,0,0.479-0.06,0.6-0.096
			C181.164,14.731,180.517,14.576,180.181,14.576z"/>
	</g>
</g>
</svg>
