<?xml version="1.0" encoding="utf-8"?>
<!-- Generator: Adobe Illustrator 16.0.0, SVG Export Plug-In . SVG Version: 6.00 Build 0)  -->
<!DOCTYPE svg PUBLIC "-//W3C//DTD SVG 1.1//EN" "http://www.w3.org/Graphics/SVG/1.1/DTD/svg11.dtd">
<svg version="1.1" xmlns="http://www.w3.org/2000/svg" xmlns:xlink="http://www.w3.org/1999/xlink" x="0px" y="0px" width="65px"
	 height="65px" viewBox="0 0 65 65" enable-background="new 0 0 65 65" xml:space="preserve">
<g id="レイヤー_2">
</g>
<g id="レイヤー_1">
	<g>
		<path fill="#333333" d="M15.023,14.134l-0.771,0.439c-1.158-1.572-2.695-2.975-4.609-4.209l0.543-0.518
			c0.861,0.518,1.645,1.083,2.348,1.694c1.719-1.26,2.973-2.552,3.76-3.877H8.334V6.976h8.75l0.371,0.337
			c-0.957,1.754-2.416,3.33-4.375,4.727C13.584,12.521,14.232,13.22,15.023,14.134z"/>
		<path fill="#333333" d="M23.975,14.593h-0.869V9.73c-1.43,0.758-2.953,1.327-4.57,1.704l-0.26-0.669
			c2.113-0.543,3.779-1.226,5-2.046s2.137-1.668,2.75-2.544l0.801,0.313c-0.594,0.885-1.543,1.777-2.852,2.676V14.593z"/>
		<path fill="#333333" d="M37.676,13.075l-0.494,0.732c-0.904-0.954-1.863-1.938-2.879-2.954c-1.014-1.016-1.672-1.66-1.975-1.934
			S31.855,8.5,31.816,8.482s-0.078-0.027-0.117-0.027c-0.029,0-0.072,0.011-0.127,0.034c-0.057,0.023-0.164,0.134-0.322,0.334
			c-0.16,0.2-0.682,0.878-1.563,2.034l-1.344,1.748l-0.561-0.552c0.23-0.264,0.529-0.64,0.898-1.128l2.061-2.739
			c0.215-0.277,0.512-0.415,0.893-0.415c0.166,0,0.336,0.031,0.51,0.093c0.176,0.062,0.389,0.211,0.643,0.449l1.475,1.396
			C34.988,10.4,36.125,11.522,37.676,13.075z M34.375,7.713V7.699c0-0.293,0.107-0.539,0.324-0.737s0.467-0.298,0.754-0.298
			c0.318,0,0.58,0.104,0.783,0.31c0.205,0.207,0.307,0.447,0.307,0.72c0,0.313-0.109,0.567-0.328,0.764s-0.465,0.295-0.742,0.295
			c-0.318,0-0.582-0.105-0.789-0.315C34.479,8.229,34.375,7.987,34.375,7.713z M35.453,8.407c0.191,0,0.359-0.067,0.5-0.203
			c0.143-0.135,0.213-0.297,0.213-0.486c0-0.195-0.07-0.363-0.209-0.503c-0.141-0.14-0.309-0.21-0.504-0.21
			c-0.182,0-0.344,0.069-0.486,0.208c-0.141,0.138-0.211,0.302-0.211,0.491s0.068,0.353,0.209,0.493S35.268,8.407,35.453,8.407z"/>
		<path fill="#333333" d="M46.729,10.892h-8.076v-0.723h8.076V10.892z"/>
		<path fill="#333333" d="M52.656,10.125l-0.4,0.708c-1.014-0.439-2.281-0.853-3.805-1.24l0.303-0.64
			C49.854,9.162,51.154,9.553,52.656,10.125z M57.363,9.715c-0.756,1.328-1.848,2.402-3.275,3.223
			c-1.426,0.82-3.072,1.32-4.934,1.499l-0.199-0.723c1.105-0.137,2.09-0.352,2.949-0.645s1.58-0.639,2.162-1.038
			s1.057-0.777,1.422-1.135c0.363-0.358,0.756-0.869,1.176-1.533L57.363,9.715z M53.676,7.704l-0.41,0.693
			c-0.811-0.391-2.074-0.829-3.793-1.313l0.332-0.596c0.459,0.091,1.068,0.254,1.828,0.488S53.074,7.453,53.676,7.704z
			 M55.674,8.065l-0.563,0.249c-0.234-0.531-0.471-0.986-0.707-1.367l0.531-0.239C55.215,7.141,55.461,7.593,55.674,8.065z
			 M57.094,7.767l-0.561,0.229c-0.223-0.518-0.455-0.968-0.699-1.353l0.508-0.239C56.605,6.812,56.855,7.266,57.094,7.767z"/>
	</g>
	<g>
		<circle fill-rule="evenodd" clip-rule="evenodd" fill="#333333" cx="33.325" cy="32.315" r="8.039"/>
		<path fill-rule="evenodd" clip-rule="evenodd" fill="#333333" d="M43.922,57C34.228,57,33,57,22,57c-4,0-4-16.473,0-16.473
			c3,0,6.329,2.473,10.659,2.473c3.242,0-1.37,0,1.217,0c4.333,0,8.127-2.557,10.046-2.625C47.308,40.256,47.311,57,43.922,57z"/>
	</g>
</g>
</svg>
