<?xml version="1.0" encoding="utf-8"?>
<!-- Generator: Adobe Illustrator 16.0.0, SVG Export Plug-In . SVG Version: 6.00 Build 0)  -->
<!DOCTYPE svg PUBLIC "-//W3C//DTD SVG 1.1//EN" "http://www.w3.org/Graphics/SVG/1.1/DTD/svg11.dtd">
<svg version="1.1" xmlns="http://www.w3.org/2000/svg" xmlns:xlink="http://www.w3.org/1999/xlink" x="0px" y="0px" width="65px"
	 height="65px" viewBox="0 0 65 65" enable-background="new 0 0 65 65" xml:space="preserve">
<g id="レイヤー_2">
</g>
<g id="レイヤー_1">
	<g>
		<path fill="#333333" d="M13.262,14.017L12.9,13.568c0.338-0.257,0.73-0.633,1.174-1.128c0.445-0.495,0.771-0.938,0.979-1.328
			h-1.792v-0.571h1.836V9.52h-1.938V8.919h1.05l-0.386-1.509h-0.513V6.795h1.826V5.877h0.732v0.918h1.787v0.615h-0.464l-0.503,1.509
			h1.05V9.52h-1.88v1.021h1.611v0.571h-1.611v0.171c0.395,0.42,0.9,0.832,1.519,1.235l-0.356,0.581
			c-0.484-0.371-0.873-0.707-1.162-1.006v2.671h-0.762v-2.573C14.443,13.047,13.832,13.656,13.262,14.017z M14.541,7.411
			l0.366,1.509h1.138l0.41-1.509H14.541z M20.605,14.662V9.593h-1.611v0.479c0,1.947-0.49,3.496-1.47,4.648l-0.513-0.396
			c0.387-0.472,0.689-1.078,0.908-1.816s0.327-1.517,0.327-2.334V6.703c1.628-0.221,2.849-0.475,3.662-0.762l0.386,0.581
			c-0.873,0.267-1.973,0.488-3.301,0.664v1.812h3.599v0.596h-1.235v5.068H20.605z"/>
		<path fill="#333333" d="M25.405,11.209c-0.267,1.387-0.986,2.55-2.158,3.491L22.9,14.242c0.521-0.426,0.962-0.989,1.323-1.687
			s0.573-1.428,0.635-2.19h-1.572V9.793h1.675V7.948h-1.44V7.376h1.44V5.887h0.732v1.489h1.377v0.571h-1.377v1.846h1.411v0.571
			h-1.396c0.124,0.377,0.338,0.816,0.642,1.316c0.305,0.5,0.589,0.888,0.853,1.165l-0.537,0.488
			C26.092,12.653,25.672,11.945,25.405,11.209z M29.961,11.429h-0.776c-0.081,0.918-0.38,1.654-0.894,2.209
			s-1.156,0.927-1.924,1.116l-0.273-0.513c1.441-0.449,2.229-1.387,2.358-2.813h-0.82V6.053h4.243v5.376h-1.191V13.7
			c0,0.137,0.037,0.232,0.112,0.286s0.244,0.081,0.508,0.081c0.273,0,0.46-0.036,0.562-0.107s0.157-0.248,0.168-0.53
			c0.012-0.282,0.018-0.538,0.018-0.769l0.601,0.083c0.007,0.316,0.01,0.576,0.01,0.781c0,0.414-0.045,0.678-0.134,0.793
			c-0.09,0.116-0.201,0.2-0.332,0.254c-0.133,0.054-0.445,0.081-0.94,0.081c-0.589,0-0.952-0.067-1.089-0.203
			s-0.205-0.307-0.205-0.515V11.429z M28.345,7.665h2.808V6.59h-2.808V7.665z M28.345,9.247h2.808V8.182h-2.808V9.247z
			 M31.152,9.764h-2.808v1.113h2.808V9.764z"/>
		<path fill="#333333" d="M33.169,11.405l-0.186-0.649c0.335-0.059,0.856-0.179,1.563-0.361V8.275h-1.299V7.674h1.299V5.897h0.762
			v1.777h1.03v0.601h-1.03v1.914c0.374-0.107,0.671-0.202,0.889-0.283l0.073,0.571c-0.195,0.082-0.516,0.192-0.962,0.332v3.198
			c0,0.211-0.082,0.38-0.247,0.505c-0.164,0.125-0.35,0.188-0.559,0.188H33.34l-0.093-0.63h0.918c0.254,0,0.381-0.119,0.381-0.356
			v-2.671C33.982,11.206,33.523,11.327,33.169,11.405z M40.244,13.158c0.709,0.414,1.475,0.709,2.295,0.889l-0.356,0.615
			c-0.96-0.231-1.821-0.584-2.583-1.06c-0.98,0.576-2.029,0.946-3.149,1.108l-0.2-0.571c0.982-0.156,1.891-0.483,2.725-0.981
			c-0.855-0.7-1.418-1.542-1.685-2.524h-0.571v-0.571h5.21c-0.071,0.648-0.239,1.22-0.503,1.716S40.768,12.734,40.244,13.158z
			 M42.5,8.695c0,0.156-0.045,0.292-0.137,0.408s-0.203,0.194-0.337,0.237s-0.378,0.063-0.732,0.063
			c-0.156,0-0.307-0.004-0.452-0.012c-0.145-0.008-0.27-0.019-0.375-0.032c-0.106-0.013-0.204-0.053-0.293-0.12
			c-0.09-0.067-0.16-0.145-0.211-0.234c-0.05-0.089-0.075-0.187-0.075-0.291V6.673h-1.704V7c0,0.563-0.108,1.082-0.324,1.555
			c-0.217,0.474-0.51,0.86-0.877,1.16l-0.459-0.4c0.619-0.56,0.928-1.297,0.928-2.212V6.122h3.184V8.5
			c0,0.101,0.035,0.179,0.107,0.234s0.23,0.083,0.479,0.083s0.412-0.032,0.493-0.095s0.126-0.157,0.132-0.281l0.034-0.269
			c0.022-0.225,0.029-0.397,0.02-0.518L42.5,7.748V8.695z M39.604,12.733c0.83-0.628,1.309-1.328,1.436-2.1h-2.993
			C38.266,11.415,38.784,12.114,39.604,12.733z"/>
		<path fill="#333333" d="M43.35,12.704L42.9,12.357c0.23-0.293,0.502-0.783,0.811-1.47s0.533-1.295,0.674-1.826h-1.167V8.5h1.23
			V6.937c-0.462,0.111-0.888,0.197-1.274,0.259l-0.122-0.552c1.028-0.166,1.968-0.425,2.817-0.776l0.313,0.542
			c-0.273,0.114-0.611,0.228-1.016,0.342V8.5h1.05v0.562h-1.05v0.571c0.182,0.267,0.514,0.641,0.996,1.123l-0.366,0.591
			c-0.271-0.309-0.479-0.566-0.63-0.771v4.17h-0.718v-4.028C44.048,11.638,43.682,12.3,43.35,12.704z M48.867,6.532V5.799h0.767
			v0.732h2.681v0.571h-5.996V6.532H48.867z M51.367,14.632h-0.859l-0.059-0.645h0.61c0.237,0,0.356-0.116,0.356-0.347V10.99H47.1
			v3.691h-0.713v-4.243h5.786v3.457c0,0.225-0.075,0.404-0.225,0.537S51.605,14.632,51.367,14.632z M47.012,9.696v-1.88h4.507v1.88
			H47.012z M50.815,8.309h-3.13v0.874h3.13V8.309z M48.569,13.519v0.161h-0.61v-2.017h2.559v1.855H48.569z M49.907,12.123h-1.318
			v0.928h1.318V12.123z"/>
	</g>
	<path fill="#333333" stroke="#333333" stroke-linecap="round" stroke-miterlimit="10" d="M41.834,39.833L27.5,29.982V34.5h-10
		c-0.553,0-1,0.281-1,0.833v8c0,0.552,0.447,1.167,1,1.167h10v5.185L41.834,39.833z"/>
	<path fill="none" stroke="#333333" stroke-width="3" stroke-linecap="round" stroke-miterlimit="10" d="M34,51.5h11.333
		c0.645,0,1.167-0.189,1.167-0.833V29c0-0.645-0.522-1.5-1.167-1.5H34"/>
	<path fill="none" stroke="#000000" stroke-width="3" stroke-miterlimit="10" d="M34.5,39.833"/>
</g>
</svg>
