<?xml version="1.0" encoding="utf-8"?>
<!-- Generator: Adobe Illustrator 16.0.0, SVG Export Plug-In . SVG Version: 6.00 Build 0)  -->
<!DOCTYPE svg PUBLIC "-//W3C//DTD SVG 1.1//EN" "http://www.w3.org/Graphics/SVG/1.1/DTD/svg11.dtd">
<svg version="1.1" id="レイヤー_1" xmlns="http://www.w3.org/2000/svg" xmlns:xlink="http://www.w3.org/1999/xlink" x="0px"
	 y="0px" width="65px" height="65px" viewBox="0 0 65 65" enable-background="new 0 0 65 65" xml:space="preserve">
<g id="レイヤー_2">
</g>
<g>
	<path fill="#333333" d="M14.526,12.551v-1.787h-1.172v-0.581h1.172V8.767c-0.368,0.377-0.714,0.674-1.04,0.889l-0.42-0.439
		c0.4-0.277,0.807-0.666,1.221-1.167s0.7-0.921,0.859-1.26l0.767,0.132c-0.114,0.234-0.329,0.56-0.645,0.977h6.929v0.581h-0.928
		v1.704h1.265v0.581h-1.265v1.787h1.021v0.601h-8.755v-0.601H14.526z M13.955,15.754l-0.703-0.298
		c0.179-0.199,0.387-0.497,0.623-0.896s0.413-0.74,0.53-1.023l0.742,0.176c-0.107,0.28-0.298,0.654-0.571,1.123
		S14.095,15.611,13.955,15.754z M15.268,8.479v1.704h1.245V8.479H15.268z M15.268,10.764v1.787h1.245v-1.787H15.268z M16.435,15.632
		l-0.483-1.909l0.757-0.132c0.179,0.534,0.356,1.177,0.532,1.929L16.435,15.632z M17.25,8.479v1.704h1.245V8.479H17.25z
		 M17.25,12.551h1.245v-1.787H17.25V12.551z M18.93,15.579c-0.114-0.355-0.342-0.983-0.684-1.885l0.737-0.166
		c0.352,0.804,0.602,1.431,0.752,1.88L18.93,15.579z M19.218,10.183h1.294V8.479h-1.294V10.183z M19.218,12.551h1.294v-1.787h-1.294
		V12.551z M21.757,15.588c-0.348-0.684-0.746-1.33-1.191-1.938l0.732-0.254c0.293,0.4,0.711,1.053,1.255,1.958L21.757,15.588z"/>
	<path fill="#333333" d="M23.588,14.343l-0.479-0.405c0.26-0.277,0.592-0.755,0.994-1.436s0.696-1.279,0.881-1.797h-1.611V10.11
		h1.772V6.931h0.737v3.179h1.357v0.596h-1.357v0.356c0.244,0.316,0.719,0.75,1.426,1.304l-0.396,0.61
		c-0.361-0.299-0.705-0.63-1.03-0.991v3.77h-0.737v-3.77C24.651,12.942,24.132,13.728,23.588,14.343z M23.906,9.529
		c-0.068-0.521-0.174-1.187-0.317-1.997l0.693-0.093l0.317,2.002L23.906,9.529z M27.084,9.509l-0.62-0.059l0.376-2.012l0.693,0.083
		L27.084,9.509z M27.373,13.64l-0.02-0.649l3.374-0.405V6.858h0.786v5.63l0.947-0.112v0.654l-0.947,0.112v2.51h-0.786V13.24
		L27.373,13.64z M29.199,12.048c-0.423-0.599-0.923-1.245-1.499-1.938l0.518-0.435c0.498,0.543,1.025,1.166,1.582,1.865
		L29.199,12.048z M29.79,9.666c-0.394-0.527-0.897-1.157-1.509-1.89l0.562-0.43c0.677,0.742,1.18,1.351,1.509,1.826L29.79,9.666z"/>
	<path fill="#333333" d="M34.775,9.558c-0.449-0.391-0.85-0.719-1.201-0.986l0.43-0.43c0.611,0.439,1.059,0.78,1.342,1.021
		c0.684-0.511,1.227-1.03,1.627-1.558H33.74V7.034h4.619c0.172,0.296,0.462,0.648,0.869,1.055c0.631-0.407,1.078-0.746,1.342-1.016
		l0.514,0.459c-0.336,0.273-0.807,0.599-1.412,0.977c0.297,0.257,0.607,0.498,0.934,0.723c0.67-0.456,1.129-0.811,1.377-1.064
		l0.498,0.415c-0.283,0.257-0.742,0.581-1.377,0.972c0.569,0.348,1.144,0.63,1.723,0.845l-0.439,0.581
		c-0.777-0.309-1.594-0.781-2.448-1.416s-1.544-1.315-2.067-2.041c-0.293,0.475-0.816,1.039-1.568,1.692s-1.756,1.251-3.012,1.794
		l-0.328-0.498C33.572,10.263,34.176,9.945,34.775,9.558z M36.094,14.905l-0.592-1.519h-0.947v-2.354h6.568v2.354h-0.898
		l-0.709,1.519h2.832v0.615h-8.945v-0.615H36.094z M40.371,11.55h-5.074v1.284h5.074V11.55z M36,10.144V9.573h3.818v0.571H36z
		 M36.25,13.386l0.596,1.519h1.947l0.641-1.519H36.25z"/>
	<path fill="#333333" d="M43.236,15.579l-0.102-0.61c0.469-0.045,1.051-0.114,1.748-0.205v-3.174h-1.451v-0.537h1.451V9.827h-0.84
		V9.338c-0.225,0.25-0.441,0.467-0.65,0.649l-0.371-0.459c0.349-0.309,0.703-0.724,1.064-1.243s0.612-1.002,0.752-1.448h0.938
		c0.358,0.645,0.773,1.172,1.246,1.582l-0.459,0.469c-0.485-0.381-0.886-0.902-1.201-1.563c-0.258,0.638-0.684,1.294-1.279,1.968
		h2.412v0.532h-0.918v1.226h1.201v0.537h-1.201v3.081c0.563-0.078,0.973-0.142,1.23-0.19v0.562
		C46.025,15.214,44.835,15.393,43.236,15.579z M43.73,14.294l-0.289-1.938l0.611-0.122l0.307,1.929L43.73,14.294z M46.596,13.967
		l-0.531-0.049l0.293-1.797l0.586,0.063L46.596,13.967z M49.297,15.71h-1.123l-0.078-0.659h0.908c0.244,0,0.365-0.112,0.365-0.337
		v-4.028h-2.367v-0.571h3.838V9.172h-3.369V8.611h3.369V7.708h-3.453V7.146h4.195v2.969h0.967v0.571h-2.438v0.63
		c0.127,0.404,0.312,0.79,0.553,1.157c0.599-0.462,1.055-0.879,1.367-1.25l0.57,0.41c-0.488,0.475-1.023,0.903-1.605,1.284
		c0.674,0.765,1.283,1.333,1.83,1.704l-0.512,0.532c-0.922-0.658-1.656-1.517-2.203-2.578v2.441c0,0.186-0.078,0.348-0.236,0.486
		S49.524,15.71,49.297,15.71z M47.236,14.641l-0.234-0.542c0.641-0.287,1.277-0.64,1.908-1.06l0.234,0.498
		C48.836,13.785,48.199,14.153,47.236,14.641z M48.105,12.664c-0.336-0.563-0.602-0.991-0.797-1.284l0.537-0.298
		c0.195,0.293,0.469,0.714,0.82,1.265L48.105,12.664z"/>
</g>
<g>
	<text transform="matrix(1 0 0 1 84.9004 15.1245)" fill="#333333" font-family="'Meiryo'" font-size="10">ログイン</text>
	<image overflow="visible" width="32" height="32" xlink:href="../../sign-in.png"  transform="matrix(1 0 0 1 88.8848 25.2905)">
	</image>
</g>
<g>
	<path fill="#333333" stroke="#333333" stroke-linecap="round" stroke-miterlimit="10" d="M42.834,40.833L28.5,30.982V35.5h-10
		c-0.553,0-1,0.281-1,0.833v8c0,0.552,0.447,1.167,1,1.167h10v5.186L42.834,40.833z"/>
	<path fill="none" stroke="#333333" stroke-width="3" stroke-linecap="round" stroke-miterlimit="10" d="M35,52.5h11.333
		c0.646,0,1.167-0.189,1.167-0.833V30c0-0.645-0.521-1.5-1.167-1.5H35"/>
	<path fill="none" stroke="#000000" stroke-width="3" stroke-miterlimit="10" d="M35.5,40.833"/>
</g>
</svg>
